<svg id="Layer_1" enable-background="new 0 0 512 512" height="512" viewBox="0 0 512 512" width="512" xmlns="http://www.w3.org/2000/svg"><path clip-rule="evenodd" d="m360.722 149.088c0 3.866-3.134 7-7 7h-195.443c-3.866 0-7-3.134-7-7s3.134-7 7-7h195.442c3.867 0 7.001 3.134 7.001 7zm138.175 128.158c-1.438 19.53-16.38 34.259-34.754 34.259h-416.286c-18.375 0-33.316-14.729-34.756-34.26-5.484-74.224-5.461-126.782.073-160.679 2.235-13.702 11.857-22.908 23.944-22.908h437.762c12.085 0 21.708 9.206 23.944 22.908 5.535 33.897 5.559 86.455.073 160.68zm-63.147-19.241c0-4.825-3.925-8.75-8.75-8.75h-342c-4.825 0-8.75 3.925-8.75 8.75v39.5h359.5zm49.259-139.183c-.841-5.15-3.998-11.164-10.128-11.164h-437.762c-6.131 0-9.287 6.014-10.128 11.163-5.354 32.797-5.33 84.28.073 157.394.908 12.337 9.653 21.29 20.793 21.29h14.393v-39.5c0-12.544 10.206-22.75 22.75-22.75h342c12.544 0 22.75 10.206 22.75 22.75v39.5h14.394c11.139 0 19.884-8.953 20.792-21.289 5.403-73.114 5.427-124.598.073-157.394zm-229.009 224.683c-3.866 0-7 3.134-7 7v60.837c0 3.866 3.134 7 7 7s7-3.134 7-7v-60.837c0-3.866-3.134-7-7-7zm-60.126.006c-3.862.158-6.865 3.419-6.707 7.281.869 21.188-5.152 41.687-16.521 56.241-2.38 3.046-1.839 7.445 1.208 9.825 1.279.999 2.797 1.483 4.304 1.483 2.081 0 4.141-.924 5.521-2.691 13.381-17.13 20.479-40.979 19.476-65.433-.158-3.862-3.425-6.859-7.281-6.706zm-62.653.004c-3.855-.21-7.154 2.766-7.354 6.626-1.105 21.208-9.037 41.291-21.761 55.101-2.62 2.843-2.439 7.271.404 9.891 1.346 1.24 3.046 1.853 4.741 1.853 1.888 0 3.77-.759 5.149-2.257 14.899-16.169 24.175-39.444 25.446-63.858.202-3.862-2.765-7.155-6.625-7.356zm189.613 7.277c.158-3.862-2.845-7.123-6.707-7.281-3.872-.154-7.123 2.845-7.281 6.707-1.004 24.452 6.096 48.302 19.477 65.433 1.381 1.768 3.44 2.691 5.521 2.691 1.507 0 3.024-.484 4.304-1.483 3.047-2.38 3.588-6.779 1.208-9.825-11.37-14.556-17.391-35.055-16.522-56.242zm63.301-.651c-.201-3.861-3.497-6.835-7.354-6.626-3.861.201-6.827 3.494-6.626 7.354 1.272 24.414 10.548 47.689 25.446 63.858 1.38 1.498 3.262 2.257 5.149 2.257 1.695 0 3.396-.612 4.741-1.853 2.843-2.619 3.024-7.048.404-9.891-12.722-13.807-20.654-33.891-21.76-55.099zm39.587-210.554c-5.232 0-9.5 4.268-9.5 9.5 0 5.233 4.268 9.5 9.5 9.5 5.233 0 9.5-4.268 9.5-9.5s-4.267-9.5-9.5-9.5z" fill-rule="evenodd"/></svg>