<svg id="Layer_1" enable-background="new 0 0 512 512" height="512" viewBox="0 0 512 512" width="512" xmlns="http://www.w3.org/2000/svg"><path d="m496 444.759h-11.411v-127.079h11.411c3.866 0 7-3.134 7-7s-3.134-7-7-7h-85.275v-141.072c0-41.165-16.139-79.976-45.445-109.281-29.305-29.305-68.115-45.444-109.281-45.444s-79.976 16.14-109.281 45.444c-29.306 29.306-45.445 68.116-45.445 109.281v141.072h-85.273c-3.866 0-7 3.134-7 7s3.134 7 7 7h11.41v127.079h-11.41c-3.866 0-7 3.134-7 7v45.358c0 3.866 3.134 7 7 7h480c3.866 0 7-3.134 7-7v-45.358c0-3.866-3.134-7-7-7zm-25.411 0h-59.865v-127.079h59.865zm-295.453-127.079v127.079h-59.863v-127.079zm14 0h59.864v127.079h-59.864zm73.864 127.079v-127.079h59.862v127.079zm73.862-127.079h59.863v127.079h-59.863zm-73.862-14v-134.071h133.725v134.071zm97.286-235.46c21.168 23.366 34.613 53.852 36.264 87.388h-123.652zm-97.287 77.489v-123.651c33.536 1.651 64.021 15.095 87.388 36.264zm-14 0-87.388-87.388c23.367-21.168 53.852-34.613 87.388-36.264zm-97.287-77.489 87.388 87.388h-123.652c1.651-33.536 15.095-64.021 36.264-87.388zm-36.439 101.388h133.727v134.071h-133.727zm-73.863 148.072h59.863v127.079h-59.863zm447.59 172.437h-466v-31.358h466z"/></svg>