<svg id="Layer_1" enable-background="new 0 0 64 64" height="512" viewBox="0 0 64 64" width="512" xmlns="http://www.w3.org/2000/svg"><g><path d="m13 34c1.654 0 3-1.346 3-3s-1.346-3-3-3-3 1.346-3 3 1.346 3 3 3zm0-4c.551 0 1 .449 1 1s-.449 1-1 1-1-.449-1-1 .449-1 1-1z"/><path d="m13 26c1.654 0 3-1.346 3-3s-1.346-3-3-3-3 1.346-3 3 1.346 3 3 3zm0-4c.551 0 1 .449 1 1s-.449 1-1 1-1-.449-1-1 .449-1 1-1z"/><path d="m13 46c1.654 0 3-1.346 3-3v-4c0-1.654-1.346-3-3-3s-3 1.346-3 3v4c0 1.654 1.346 3 3 3zm-1-7c0-.552.449-1 1-1s1 .448 1 1v4c0 .552-.449 1-1 1s-1-.448-1-1z"/><path d="m54 52h-6.127c.763-1.112 1.127-2.558 1.127-4 0-6.356-1.913-10.783-3.165-13h1.682c.891 1.162 2.383 3.485 2.383 6 0 1.654 1.346 3 3 3s3-1.346 3-3c0-6.184-4.681-10.923-4.879-11.121-.567-.567-1.32-.879-2.121-.879h-3.9v-3c0-.552-.448-1-1-1h-2v-3h4c6.897 0 10-9.941 10-17l.001-.284c.005-1.47-.027-2.65-.49-3.358-.556-.85-1.495-1.358-2.511-1.358h-43c-2.757 0-5 2.243-5 5v54c0 2.757 2.243 5 5 5h44c2.757 0 5-2.243 5-5v-2c0-2.757-2.243-5-5-5zm-24-30v3h-4c-.347 0-.669.18-.851.474-.182.295-.199.663-.044.973l1.277 2.553h-.382c-.552 0-1 .448-1 1v4c0 .553.448 1 1 1h.165c-1.252 2.217-3.165 6.644-3.165 13 0 1.442.364 2.888 1.126 4h-2.126c-.551 0-1-.448-1-1v-28c0-.551.449-1 1-1zm-5 26c0-3.212.535-5.896 1.202-8h19.596c.667 2.104 1.202 4.789 1.202 8 0 .668-.145 4-3 4h-16c-2.856 0-3-3.332-3-4zm20.061-10h-18.122c.627-1.487 1.241-2.497 1.578-3h14.965c.337.502.951 1.512 1.579 3zm4.547-6.706c.175.175 4.292 4.343 4.292 9.706 0 .552-.449 1-1 1s-1-.448-1-1c0-3.337-1.959-6.217-3.128-7.636-.19-.23-.473-.364-.772-.364h-21v-2h21.9c.263 0 .52.107.708.294zm-6.608-2.294h-14.382l-1-2h15.382zm-3-4h-8v-3h8zm6-5h-18v-14h25.975c-.26 5.987-2.81 14-7.975 14zm7.831-17.556c.123.228.157.944.167 1.556h-25.998v-2h25c.338 0 .651.169.831.444zm-43.831-.444h16v18h-4c-1.654 0-3 1.346-3 3v28c0 1.654 1.346 3 3 3h32c1.654 0 3 1.346 3 3h-50v-52c0-1.654 1.346-3 3-3zm44 60h-44c-1.654 0-3-1.346-3-3h50c0 1.654-1.346 3-3 3z"/></g></svg>