<svg height="512" viewBox="0 0 128 128" width="512" xmlns="http://www.w3.org/2000/svg"><g><path d="m109.357 15.927-25-10.243a1.75 1.75 0 0 0 -2.413 1.616v8.22h-33.524a1.749 1.749 0 0 0 -1.75 1.75v33.03h-5.9a5.253 5.253 0 0 0 -3.839 1.664l-6.592 7.046a5.249 5.249 0 1 0 7.666 7.171l5.031-5.381h3.634v5.329l-3.319 9.171-6.251 8.276h-14.3a5.25 5.25 0 1 0 0 10.5h16.91a5.282 5.282 0 0 0 4.19-2.085l2.768-3.666v21.315a1.75 1.75 0 0 0 1.75 1.75h33.526v9.31a1.75 1.75 0 0 0 2.413 1.619l25-10.243a1.749 1.749 0 0 0 1.087-1.619v-92.911a1.749 1.749 0 0 0 -1.087-1.619zm-68.246 73.952a1.763 1.763 0 0 1 -1.395.7h-16.91a1.75 1.75 0 1 1 0-3.5h15.171a1.751 1.751 0 0 0 1.4-.695l6.923-9.184a1.792 1.792 0 0 0 .249-.459l6.12-16.92c.536-1.484-1.009-2.525-2.066-2.525h-8.33a1.747 1.747 0 0 0 -1.273.557l-5.551 5.937a1.749 1.749 0 0 1 -2.555-2.39l6.593-7.053a1.751 1.751 0 0 1 1.28-.551h10.539a1.781 1.781 0 0 1 .683.143l10.173 4.268a1.763 1.763 0 0 1 .916.885l3.61 7.78a1.753 1.753 0 0 0 1.588 1.014h5.76a1.75 1.75 0 0 1 0 3.5h-8a1.769 1.769 0 0 1 -1.592-1.015l-3.02-6.53a1.75 1.75 0 0 0 -3.265.233l-4.09 13.7a1.754 1.754 0 0 0 .451 1.75l8.2 8.047a1.749 1.749 0 0 1 .518 1.254v17.311a1.75 1.75 0 0 1 -3.5 0v-15.836a1.747 1.747 0 0 0 -.523-1.248l-8.615-8.464a1.75 1.75 0 0 0 -2.623.193zm9.059-4.809 6.066 5.96v15.107a5.187 5.187 0 0 0 .324 1.753h-6.39zm16.243 22.82a5.187 5.187 0 0 0 .323-1.753v-17.311a5.218 5.218 0 0 0 -1.564-3.749l-7.447-7.31 2.464-8.257 1.082 2.338a5.285 5.285 0 0 0 4.765 3.039h8a5.25 5.25 0 0 0 0-10.5h-4.642l-3.14-6.766a5.263 5.263 0 0 0 -2.732-2.638l-10.181-4.271a5.238 5.238 0 0 0 -2.035-.415h-1.136v-31.277h31.774v88.87zm40.531 1.39-21.5 8.809v-108.178l21.5 8.809z"/><path d="m61.945 36.2a8.312 8.312 0 1 0 8.313 8.312 8.321 8.321 0 0 0 -8.313-8.312zm0 13.124a4.812 4.812 0 1 1 4.813-4.812 4.818 4.818 0 0 1 -4.813 4.813z"/></g></svg>