<svg id="Capa_1" enable-background="new 0 0 505.867 505.867" height="512" viewBox="0 0 505.867 505.867" width="512" xmlns="http://www.w3.org/2000/svg"><g><g><path d="m262.893 143.662c-4.501-5.972-9.616-11.454-15.261-16.358-3.116-2.711-7.839-2.384-10.551.732-2.711 3.116-2.384 7.839.732 10.551 4.856 4.222 9.253 8.944 13.118 14.087 2.483 3.301 7.171 3.964 10.472 1.481s3.964-7.171 1.481-10.472z"/><path d="m172.998 106.736h-24.508c-10.984 0-19.889 8.905-19.889 19.889s8.905 19.889 19.889 19.889h54.002c4.126-.001 7.469-3.347 7.468-7.473 0-.424-.036-.847-.108-1.265-3.062-17.956-18.64-31.076-36.854-31.04zm-24.508 24.836c-2.733 0-4.948-2.215-4.948-4.948s2.215-4.948 4.948-4.948h24.508c7.473-.014 14.461 3.697 18.634 9.895h-43.142z"/><path d="m505.867 227.333c-.021-18.263-14.821-33.063-33.084-33.084h-143.547c-2.898-12.418-12.661-22.074-25.11-24.837-16.946-55.752-68.354-93.867-126.625-93.882h-58.228c-17.805.028-32.397 14.137-33.024 31.931h-18.202c-4.125.002-7.468 3.346-7.471 7.471v4.922c-8.357-1.798-14.33-9.18-14.344-17.729v-69.028c-.021-18.263-14.821-33.063-33.084-33.084h-5.677c-4.126 0-7.471 3.345-7.471 7.47s3.345 7.471 7.471 7.471h5.678c10.015.012 18.131 8.128 18.143 18.143v69.028c.015 16.797 12.6 30.924 29.285 32.871v5.55c.002 4.125 3.346 7.468 7.471 7.471h18.143v20.619h-3.202c-4.125.002-7.468 3.346-7.471 7.471v18.151h-42.434c-18.26.02-33.058 14.815-33.084 33.075.026 8.523 5.386 16.118 13.409 18.997 2.986 15.589 16.61 26.869 32.482 26.894h84.439l95.769 110.565-76.661 88.58c-7.243 8.538-6.193 21.332 2.346 28.574 8.429 7.151 21.033 6.23 28.335-2.069l72.815-84.085 72.815 84.046c7.319 8.471 20.12 9.405 28.591 2.085 8.471-7.319 9.405-20.12 2.085-28.591l-76.665-88.537 95.777-110.569h84.439c15.872-.025 29.496-11.305 32.482-26.894 8.022-2.879 13.383-10.473 13.409-18.996zm-430.35-94.258v-10.672h10.672v10.672zm25.614-24.461c.012-10.015 8.128-18.131 18.143-18.143h58.228c49.743-.012 94.106 31.293 110.766 78.164h-187.137zm-10.673 74.962h206.573c7.116.014 13.566 4.187 16.495 10.672h-223.068zm-57.374 25.614h439.698c10.015.012 18.131 8.128 18.143 18.143-.005 2.934-2.376 5.315-5.311 5.332h-.026-.081-465.149-.081-.026c-2.934-.016-5.306-2.397-5.311-5.332.016-10.012 8.131-18.123 18.143-18.134zm135.752 279.883c-1.92 2.233-5.287 2.486-7.52.566s-2.486-5.287-.566-7.52l75.244-86.915 7.074 8.166zm175.747.559c-2.235 1.921-5.602 1.668-7.526-.564l-186.958-215.845h14.169l180.874 208.895c1.901 2.241 1.646 5.594-.572 7.522zm-160.55-216.409h137.801l-68.9 79.59zm85.844 99.155-7.057-8.149 78.779-91.005h14.164zm190.099-114.096h-414.085c-7.113-.017-13.559-4.19-16.487-10.672h447.058c-2.927 6.482-9.374 10.655-16.486 10.672z"/></g></g></svg>