<svg clip-rule="evenodd" fill-rule="evenodd" height="7.111in" image-rendering="optimizeQuality" shape-rendering="geometricPrecision" text-rendering="geometricPrecision" viewBox="0 0 7111 7111" width="7.111in" xmlns="http://www.w3.org/2000/svg"><g id="Layer_x0020_1"><path d="m4477 5447h-1842c-278 0-505-227-505-505 0-1389-929-1055-929-2588 0-1298 1057-2354 2355-2354s2354 1056 2354 2354c0 1533-929 1199-929 2588 0 278-226 505-504 505zm-921-5280c-1207 0-2188 981-2188 2187 0 727 220 994 454 1277 233 283 475 576 475 1311 0 187 151 338 338 338h1842c186 0 337-151 337-338 0-735 242-1028 475-1311 234-283 454-550 454-1277 0-1206-981-2187-2187-2187z"/><path d="m4508 6724h-1905c-46 0-84-37-84-83v-1279c0-49 43-87 91-83h1891c48-4 91 34 91 83v1279c0 46-38 83-84 83zm-1822-167h1739v-1110h-1739z"/><path d="m3556 7111c-529 0-936-203-921-475 2-44 39-79 83-79h1675c51 0 84 39 84 93 0 263-396 461-921 461zm-726-387c88 115 370 220 726 220 355 0 637-105 725-220z"/><path d="m2440 5754c-110 0-110-166 0-166l2231-2c110 0 110 167 0 167z"/><path d="m2440 6086c-110 0-110-167 0-167l2231-2c110 0 110 167 0 167z"/><path d="m2440 6417c-110 0-110-167 0-167l2231-2c110 0 110 167 0 167z"/><path d="m3556 4095c-483 0-861-764-861-1738s378-1737 861-1737c58 0 117 11 174 34 42 17 63 65 46 108s-65 64-108 46c-229-91-443 110-587 415-293 624-293 1644 0 2268 273 581 676 581 949 0 306-652 295-1758-52-2368-54-96 90-178 145-83 186 328 293 808 293 1317 0 974-378 1738-860 1738z"/><path d="m2689 3507c-307 0-534-100-638-281-241-418 231-1127 1074-1614 446-257 918-405 1297-405 307 0 534 100 638 281 121 210 68 496-148 808-445 638-1466 1211-2223 1211zm1733-2133c-703 0-1672 546-2086 1140-325 467-217 826 353 826 703 0 1673-546 2086-1139 325-468 217-827-353-827z"/><path d="m4420 3507c-755 0-1777-574-2221-1211-216-312-269-598-148-808 55-95 199-11 144 84-85 148-34 377 141 629 413 593 1381 1138 2084 1139 109 0 109 167 0 167zm481-137c-77 0-113-97-53-147 184-154 117-436-73-709-190-274-500-543-873-758-478-276-978-416-1339-375-109 12-128-153-18-166 394-44 933 104 1441 397 393 227 722 513 926 806 245 353 300 717 43 933-16 13-35 19-54 19z"/><path d="m3903 1212c-184 0-334-150-334-335 0-184 150-334 334-334 185 0 335 150 335 334 0 185-150 335-335 335zm0-503c-92 0-168 76-168 168 0 93 76 168 168 168 93 0 168-75 168-168 0-92-75-168-168-168z"/><path d="m2311 1698c-185 0-335-150-335-335 0-184 150-335 335-335s335 151 335 335c0 185-150 335-335 335zm0-503c-93 0-168 76-168 168 0 93 75 168 168 168s168-75 168-168c0-92-75-168-168-168z"/><path d="m4667 3712c-185 0-335-150-335-335s150-335 335-335c184 0 334 150 334 335s-150 335-334 335zm0-503c-93 0-168 75-168 168s75 168 168 168c92 0 168-75 168-168s-76-168-168-168z"/></g></svg>