<svg id="Capa_1" enable-background="new 0 0 596.447 596.447" height="512" viewBox="0 0 596.447 596.447" width="512" xmlns="http://www.w3.org/2000/svg"><g><g><path d="m549.003 463.195h-501.558c-26.161 0-47.445-21.283-47.445-47.444v-266.956c0-26.161 21.284-47.445 47.445-47.445h501.558c26.161 0 47.445 21.283 47.445 47.445v266.955c-.001 26.162-21.284 47.445-47.445 47.445zm-501.558-343.77c-16.195 0-29.371 13.176-29.371 29.371v266.955c0 16.195 13.176 29.371 29.371 29.371h501.558c16.195 0 29.371-13.176 29.371-29.371v-266.956c0-16.195-13.176-29.371-29.371-29.371h-501.558z"/></g><g><path d="m379.105 410.599h-327.594c-4.991 0-9.037-4.046-9.037-9.037v-238.669c0-4.991 4.046-9.037 9.037-9.037h327.594c4.991 0 9.037 4.046 9.037 9.037v238.669c0 4.991-4.046 9.037-9.037 9.037zm-318.557-18.074h309.52v-220.595h-309.52z"/></g><g><path d="m419.592 463.195c-4.991 0-9.037-4.046-9.037-9.037v-343.77c0-4.991 4.046-9.037 9.037-9.037s9.037 4.046 9.037 9.037v343.771c0 4.99-4.046 9.036-9.037 9.036z"/></g><g><path d="m556.323 223.442h-101.668c-4.991 0-9.037-4.046-9.037-9.037v-45.727c0-4.991 4.046-9.037 9.037-9.037h101.667c4.991 0 9.037 4.046 9.037 9.037v45.727c.001 4.99-4.046 9.037-9.036 9.037zm-92.631-18.074h83.593v-27.654h-83.593z"/></g><g><path d="m505.534 426.866c-21.826 0-39.582-17.756-39.582-39.582s17.756-39.582 39.582-39.582 39.582 17.756 39.582 39.582-17.756 39.582-39.582 39.582zm0-61.09c-11.859 0-21.508 9.649-21.508 21.508s9.649 21.508 21.508 21.508 21.508-9.649 21.508-21.508-9.649-21.508-21.508-21.508z"/></g><g><path d="m524.602 282.002h-38.136c-4.991 0-9.037-4.046-9.037-9.037s4.046-9.037 9.037-9.037h38.136c4.991 0 9.037 4.046 9.037 9.037s-4.046 9.037-9.037 9.037z"/></g><g><path d="m524.602 317.518h-38.136c-4.991 0-9.037-4.046-9.037-9.037s4.046-9.037 9.037-9.037h38.136c4.991 0 9.037 4.046 9.037 9.037s-4.046 9.037-9.037 9.037z"/></g><g><path d="m123.989 495.097h-29.823c-13.903 0-25.213-11.311-25.213-25.213v-15.725c0-4.991 4.046-9.037 9.037-9.037h62.175c4.991 0 9.037 4.046 9.037 9.037v15.725c0 13.902-11.31 25.213-25.213 25.213zm-36.962-31.902v6.688c0 3.937 3.203 7.139 7.139 7.139h29.822c3.937 0 7.139-3.202 7.139-7.139v-6.688z"/></g><g><path d="m502.28 495.097h-29.822c-13.902 0-25.213-11.311-25.213-25.213v-15.725c0-4.991 4.046-9.037 9.037-9.037h62.174c4.991 0 9.037 4.046 9.037 9.037v15.725c.001 13.902-11.31 25.213-25.213 25.213zm-36.961-31.902v6.688c0 3.937 3.202 7.139 7.139 7.139h29.822c3.937 0 7.139-3.202 7.139-7.139v-6.688z"/></g></g></svg>