<svg id="Capa_1" enable-background="new 0 0 512 512" viewBox="0 0 512 512" xmlns="http://www.w3.org/2000/svg"><g><path d="m458.486 115.815c4.143 0 7.5-3.358 7.5-7.5v-93.276c0-8.293-6.746-15.039-15.039-15.039h-25.271c-8.293 0-15.039 6.746-15.039 15.039v139.021h-17.912v-70.755c0-10.187-8.288-18.474-18.475-18.474h-107.276c-4.112 0-7.901 1.367-10.974 3.648-3.073-2.281-6.862-3.648-10.974-3.648h-107.276c-10.187 0-18.475 8.288-18.475 18.474v70.755h-17.912v-139.021c0-8.293-6.746-15.039-15.039-15.039h-25.271c-8.293 0-15.039 6.746-15.039 15.039v387.627c0 4.142 3.357 7.5 7.5 7.5s7.5-3.358 7.5-7.5l.039-387.666 25.31.039-.039 481.961-25.31-.039v-59.291c0-4.142-3.357-7.5-7.5-7.5s-7.5 3.358-7.5 7.5v59.292c0 8.292 6.746 15.039 15.039 15.039h25.271c8.293 0 15.039-6.746 15.039-15.039v-51.792h309.274v51.792c0 8.292 6.746 15.039 15.039 15.039h25.271c8.293 0 15.039-6.746 15.039-15.039v-353.643c0-4.142-3.357-7.5-7.5-7.5s-7.5 3.358-7.5 7.5l-.039 353.681-25.31-.039.039-481.961 25.31.039v93.276c0 4.142 3.357 7.5 7.5 7.5zm-191.512-35.985h107.276c1.916 0 3.475 1.559 3.475 3.474v70.755h-114.225v-70.754c0-1.916 1.558-3.475 3.474-3.475zm-132.699 3.475c0-1.916 1.559-3.474 3.475-3.474h107.276c1.915 0 3.474 1.559 3.474 3.474v70.755h-114.225zm276.362 85.755v123.055h-17.912v-87.088c0-8.965-7.294-16.259-16.26-16.259h-46.835c-8.966 0-16.26 7.294-16.26 16.259v87.088h-17.693v-87.088c0-8.965-7.294-16.259-16.26-16.259h-46.835c-8.966 0-16.26 7.294-16.26 16.259v87.088h-17.694v-87.088c0-8.965-7.294-16.259-16.259-16.259h-46.835c-8.966 0-16.26 7.294-16.26 16.259v87.088h-17.912v-123.055zm-32.912 50.106h-49.354v-14.139c0-.694.565-1.259 1.26-1.259h46.835c.694 0 1.26.565 1.26 1.259v14.139zm-49.354 15h49.354v57.949h-49.354zm-47.694-15h-49.354v-14.139c0-.694.565-1.259 1.26-1.259h46.835c.694 0 1.26.565 1.26 1.259v14.139zm-49.354 15h49.354v57.949h-49.354zm-47.695-15h-49.354v-14.139c0-.694.565-1.259 1.26-1.259h46.835c.694 0 1.259.565 1.259 1.259zm-49.353 15h49.354v57.949h-49.354zm17.872 196.004-14.898-43.789h108.277l-14.898 43.789zm111.353-73.17c0-.584.476-1.06 1.061-1.06h112.104c.585 0 1.061.476 1.061 1.06v14.381h-114.226zm-15 14.381h-114.225v-14.381c0-.584.476-1.06 1.06-1.06h112.105c.584 0 1.06.476 1.06 1.06zm7.5 30.785 9.528 28.003h-19.056zm25.372 28.004-14.898-43.789h108.278l-14.898 43.789zm94.325 0 16.628-48.873c.007-.02.01-.041.017-.062.083-.252.155-.509.212-.772.003-.014.008-.027.01-.041.057-.272.098-.55.124-.832.008-.084.008-.169.013-.253.009-.152.023-.303.023-.457v-21.88c0-8.855-7.205-16.06-16.061-16.06h-112.103c-3.148 0-6.079.924-8.56 2.495-2.481-1.572-5.412-2.495-8.56-2.495h-112.106c-8.855 0-16.06 7.205-16.06 16.06v21.881c0 .155.014.307.023.459.005.083.005.167.013.25.026.282.067.56.124.832.003.014.008.027.01.041.056.263.128.52.212.772.007.02.01.041.017.062l16.628 48.873h-34.94v-123.055h309.274v123.055z"/><path d="m210.839 95.876h-38.904c-4.143 0-7.5 3.358-7.5 7.5s3.357 7.5 7.5 7.5h38.904c4.143 0 7.5-3.358 7.5-7.5s-3.357-7.5-7.5-7.5z"/><path d="m301.16 110.876h38.905c4.143 0 7.5-3.358 7.5-7.5s-3.357-7.5-7.5-7.5h-38.905c-4.143 0-7.5 3.358-7.5 7.5s3.357 7.5 7.5 7.5z"/></g><g/><g/><g/><g/><g/><g/><g/><g/><g/><g/><g/><g/><g/><g/><g/></svg>