<svg id="Capa_1" enable-background="new 0 0 512 512" viewBox="0 0 512 512" xmlns="http://www.w3.org/2000/svg"><g><g><path d="m56.686 367.242c-.859 5.188 1.528 10.238 6.082 12.867l67.026 38.697c1.967 1.136 4.125 1.696 6.268 1.696 2.816 0 5.609-.967 7.916-2.862.068-.056.13-.117.196-.174 32.912 22.888 71.355 34.941 111.826 34.941 41.715 0 81.565-12.92 115.242-37.363 1.776-1.289 2.899-3.292 3.071-5.479.173-2.188-.622-4.342-2.173-5.894l-263.812-263.812c-1.552-1.552-3.702-2.346-5.894-2.173-2.188.172-4.19 1.295-5.479 3.071-24.443 33.677-37.363 73.527-37.363 115.243 0 34.331 8.882 67.745 25.773 97.305l-18.775 3.717c-5.157 1.021-9.045 5.033-9.904 10.22zm200.704-57.107 58.475 58.475 5.231 11.005-16.744-7.959c-2.679-1.273-5.787-1.351-8.526-.217-2.74 1.135-4.881 3.389-5.875 6.183l-6.211 17.467-6.211-17.467c-.994-2.794-3.135-5.048-5.875-6.183-1.286-.533-2.652-.798-4.017-.798-1.544 0-3.087.34-4.509 1.016l-16.744 7.959 7.959-16.744c1.273-2.678 1.353-5.786.218-8.526s-3.389-4.881-6.183-5.875l-17.467-6.211 17.467-6.211c2.794-.994 5.048-3.135 6.183-5.875s1.056-5.848-.218-8.526l-7.958-16.743zm-24.468-24.468c-1.26.52-2.437 1.294-3.459 2.315-3.183 3.183-3.991 7.867-2.058 11.933l11.251 23.67-24.693 8.781c-4.242 1.508-6.982 5.392-6.982 9.893s2.74 8.385 6.982 9.893l24.693 8.781-11.251 23.67c-1.932 4.066-1.124 8.75 2.059 11.933s7.866 3.99 11.933 2.058l23.67-11.251 8.781 24.693c1.508 4.242 5.392 6.982 9.893 6.982s8.385-2.74 9.893-6.982l8.781-24.693 23.67 11.251c4.068 1.934 8.75 1.125 11.933-2.058 1.021-1.021 1.795-2.199 2.315-3.459l14.838 14.838c-29.499 19.323-63.6 29.493-99.17 29.493-39.825 0-77.521-12.633-109.175-36.542l-10.118-29.721c-.232-.682-.159-1.431.202-2.055l49.64-85.978c.486-.842 1.435-1.328 2.406-1.229 11.373 1.116 22.906-1.643 32.56-7.623zm-134.28 80.301c.02-.004.04-.008.061-.012l4.799-.95c4.949-.98 9.234-4.048 11.756-8.417l20.897-36.194c2.071-3.587.842-8.174-2.745-10.245-3.588-2.072-8.174-.842-10.245 2.745l-20.897 36.194c-.298.516-.772.894-1.325 1.092-17.25-28.339-26.35-60.787-26.35-94.181 0-35.571 10.17-69.673 29.493-99.17l45.794 45.794-.871 1.509c-10.177 17.626-9.093 39.718 2.761 56.28.57.797.625 1.856.139 2.699l-11.243 19.473c-2.071 3.587-.842 8.174 2.745 10.245 3.586 2.071 8.173.843 10.245-2.745l11.243-19.473c3.422-5.927 3.057-13.357-.931-18.929-7.988-11.162-9.105-25.849-3.054-38.026l49.595 49.595c-6.176 3.052-13.178 4.38-20.091 3.701-6.822-.667-13.438 2.731-16.859 8.658l-49.639 85.978c-2.523 4.369-3.037 9.614-1.411 14.39l9.026 26.512-55.505-32.046z"/><path d="m462.361 104.668c-31.238-42.48-73.853-73.833-123.369-90.834l-4.378-7.583c-3.446-5.968-11.105-8.021-17.075-4.576l-7.204 4.159c-17.778-3.856-36.037-5.834-54.335-5.834-62.392 0-122.546 22.807-169.381 64.219-3.104 2.744-3.395 7.483-.651 10.587 1.482 1.676 3.547 2.532 5.622 2.532 1.766 0 3.539-.62 4.965-1.881 44.091-38.986 100.716-60.457 159.445-60.457 11.471 0 22.926.82 34.24 2.436l-41.118 23.74c-5.969 3.446-8.021 11.106-4.575 17.076l.938 1.624c-37.88 1.987-73.892 14.699-104.727 37.08-1.776 1.289-2.899 3.292-3.071 5.479-.173 2.188.622 4.342 2.173 5.894l263.812 263.811c1.412 1.412 3.322 2.197 5.303 2.197.196 0 .394-.008.591-.023 2.188-.172 4.19-1.295 5.479-3.071 14.997-20.663 25.64-43.621 31.688-68.279l32.871-18.978c4.554-2.629 6.941-7.68 6.082-12.867s-4.747-9.199-9.904-10.22l-23.374-4.627c0-.089.001-.182.001-.271 0-50.492-19.074-98.327-53.737-134.95-1.154-4.507-2.916-8.898-5.308-13.041l-42.445-73.517c39.467 16.912 73.537 43.949 99.359 79.063 30.565 41.565 46.722 90.822 46.722 142.444 0 132.888-108.112 241-241 241s-241-108.112-241-241c0-57.228 20.509-112.748 57.748-156.333 2.691-3.149 2.319-7.884-.83-10.574-3.149-2.691-7.883-2.319-10.574.83-39.558 46.299-61.344 105.28-61.344 166.077 0 141.159 114.841 256 256 256s256-114.841 256-256c0-54.842-17.165-107.171-49.639-151.332zm-305.531-.583c28.942-18.959 62.317-29.099 97.162-29.475l34.662 60.036-63.821-36.847c-2.891-1.669-6.26-2.113-9.485-1.249s-5.92 2.933-7.59 5.824l-19.267 33.371zm42.641 42.642 20.027-34.687 64.086 37-1.392 2.411h-77.997zm19.724 19.724h54.336l-19.888 34.448zm115.475 115.474-37.601-37.601 4.154 1.272c5.202 1.594 10.844-1.122 12.842-6.184l4.545-11.513 4.545 11.513c1.997 5.063 7.64 7.778 12.841 6.185l11.835-3.625-6.167 10.73c-2.713 4.718-1.32 10.823 3.17 13.897l10.214 6.993-12.237 1.87c-3.749.574-6.783 3.129-8.141 6.463zm55.934-117.637c4.282-5.983 7.15-12.689 8.598-19.644 23.123 29.643 36.379 65.521 38.024 103.337l-46.762-80.993c-.486-.842-.432-1.902.14-2.7zm-10.231-48.779c7.241 12.542 6.468 28.262-1.967 40.049-3.988 5.572-4.354 13.002-.932 18.93l49.64 85.978c2.522 4.369 6.807 7.437 11.756 8.417l27.473 5.439-55.505 32.046 9.026-26.512c1.626-4.776 1.112-10.022-1.411-14.391l-17.937-31.067c-2.071-3.588-6.658-4.817-10.245-2.745-3.587 2.071-4.816 6.658-2.745 10.245l17.937 31.067c.36.624.434 1.373.202 2.056l-11.169 32.808c-1.695 4.978-.165 10.351 3.899 13.688 2.307 1.896 5.1 2.862 7.916 2.862 2.143 0 4.3-.56 6.268-1.696l15.425-8.906c-4.887 14.585-11.599 28.438-20.086 41.393l-58.192-58.192-.533-7.316 19.393-2.963c4.29-.655 7.686-3.812 8.651-8.042.966-4.23-.723-8.549-4.304-11.001l-16.187-11.083 9.774-17.009c2.163-3.763 1.812-8.386-.894-11.779-2.706-3.392-7.135-4.761-11.284-3.493l-18.758 5.745-7.204-18.247c-1.593-4.036-5.426-6.645-9.765-6.645 0 0 0 0-.001 0-4.339 0-8.173 2.608-9.767 6.645l-7.204 18.248-18.758-5.745c-1.963-.602-4.004-.594-5.906-.06l-12.352-12.352 33.2-57.505c.399-.691.723-1.41.981-2.146l4.492 7.781c10.176 17.626 29.846 27.73 50.12 25.75.971-.098 1.92.387 2.407 1.229l14.203 24.6c2.071 3.587 6.659 4.817 10.245 2.745 3.587-2.071 4.816-6.658 2.745-10.245l-14.203-24.6c-3.421-5.927-10.039-9.326-16.858-8.658-14.422 1.413-28.427-5.779-35.668-18.321l-35.227-61.011h85.448zm-22.522-39.009h-85.448l-13.616-23.584 64.085-37z"/></g></g><g/><g/><g/><g/><g/><g/><g/><g/><g/><g/><g/><g/><g/><g/><g/></svg>