<svg id="Layer_1" enable-background="new 0 0 60 60" height="512" viewBox="0 0 60 60" width="512" xmlns="http://www.w3.org/2000/svg"><path d="m21.98 31.84c-.82 1.74-2.15 3.08-3.75 3.77-3.79 1.64-5.92 5.64-5.19 9.74.5 2.81 2.33 5.19 4.91 6.38 2.51 1.16 5.4 1.12 7.94-.14 2.62-1.3 5.63-1.3 8.25 0 1.31.65 2.72.98 4.13.98 1.3 0 2.6-.28 3.81-.84 2.57-1.19 4.41-3.58 4.91-6.38.72-4.04-1.37-8.03-5.1-9.7-1.62-.73-2.91-2.06-3.62-3.76-1.09-2.61-3.4-5.72-8.16-5.72-.03 0-.07 0-.1 0-3.54.05-6.31 2-8.03 5.67zm8.04-3.66h.08c2.95 0 5.07 1.51 6.32 4.49.91 2.17 2.56 3.88 4.65 4.82 2.88 1.29 4.5 4.38 3.94 7.52-.38 2.13-1.83 4.02-3.78 4.92-1.96.91-4.23.87-6.21-.11-1.59-.79-3.3-1.18-5.01-1.18s-3.42.39-5.01 1.18c-1.98.98-4.25 1.02-6.21.11-1.95-.9-3.4-2.79-3.78-4.92-.57-3.18 1.09-6.28 4.02-7.55 2.05-.89 3.74-2.58 4.76-4.76 1.39-2.97 3.49-4.49 6.23-4.52z"/><path d="m52.13 21.3c-1.47-.7-3.21-.55-4.89.42-1.57.9-2.91 2.42-3.8 4.29s-1.21 3.87-.92 5.66c.32 1.92 1.3 3.35 2.77 4.05.61.29 1.27.43 1.95.43.96 0 1.96-.29 2.94-.85 1.56-.9 2.91-2.42 3.8-4.29s1.21-3.87.92-5.66c-.31-1.91-1.3-3.35-2.77-4.05zm.05 8.86c-.71 1.5-1.77 2.71-2.99 3.41-1.1.63-2.18.75-3.04.35-.86-.41-1.45-1.32-1.65-2.57-.23-1.38.04-2.97.75-4.47s1.77-2.71 2.99-3.41c.67-.39 1.34-.58 1.95-.58.39 0 .75.08 1.09.24.86.41 1.45 1.32 1.65 2.57.23 1.37-.04 2.95-.75 4.46z"/><path d="m36.01 24.16c.4.1.8.15 1.2.15 1.31 0 2.65-.54 3.85-1.58 1.47-1.27 2.59-3.15 3.15-5.3s.5-4.34-.17-6.17c-.7-1.94-2.02-3.26-3.71-3.69-3.33-.87-7.02 2.15-8.21 6.72-1.21 4.65.5 8.99 3.89 9.87zm-1.95-9.37c.81-3.11 3.03-5.38 5.09-5.38.23 0 .46.03.68.09 1.03.27 1.86 1.14 2.34 2.46.53 1.45.57 3.21.11 4.98-.46 1.76-1.36 3.29-2.52 4.29-1.06.91-2.22 1.27-3.25 1-2.23-.58-3.35-3.99-2.45-7.44z"/><path d="m9.83 35.3c.98.57 1.99.85 2.94.85.68 0 1.34-.14 1.95-.43 1.47-.7 2.46-2.14 2.77-4.05.29-1.78-.03-3.79-.92-5.66-1.92-4.04-5.73-6.11-8.69-4.71s-3.77 5.67-1.85 9.71c.88 1.87 2.23 3.39 3.8 4.29zm-1.09-12.19c.34-.16.7-.24 1.08-.24 1.74 0 3.8 1.59 4.95 3.99.71 1.5.98 3.09.75 4.47-.21 1.25-.79 2.16-1.65 2.57s-1.94.29-3.04-.35c-1.21-.7-2.28-1.91-2.99-3.41-1.39-2.91-.98-6.14.9-7.03z"/><path d="m15.8 17.44c1.05 4.05 4.06 6.87 7.04 6.87.39 0 .78-.05 1.17-.15 3.33-.87 5.08-5.3 3.88-9.88-1.19-4.58-4.88-7.59-8.21-6.72s-5.08 5.3-3.88 9.88zm4.38-7.94c2.23-.58 4.87 1.84 5.77 5.29s-.22 6.86-2.45 7.44c-2.22.58-4.87-1.84-5.77-5.29-.9-3.45.23-6.86 2.45-7.44z"/></svg>