<svg id="Layer_1" enable-background="new 0 0 64 64" height="512" viewBox="0 0 64 64" width="512" xmlns="http://www.w3.org/2000/svg"><g><path d="m50 0h-36c-1.654 0-3 1.346-3 3v58c0 1.654 1.346 3 3 3h36c1.654 0 3-1.346 3-3v-58c0-1.654-1.346-3-3-3zm1 3v35h-20v-36h19c.552 0 1 .448 1 1zm-34 37h12v1h-12zm14 0h16v1h-16zm-17-38h15v36h-16v-35c0-.552.448-1 1-1zm-1 59v-21h2v2c0 .553.447 1 1 1h13v19h-15c-.552 0-1-.448-1-1zm37 1h-19v-19h17c.553 0 1-.447 1-1v-2h2v21c0 .552-.448 1-1 1z"/><path d="m16 36h10c.553 0 1-.447 1-1v-16c0-.553-.447-1-1-1h-10c-.553 0-1 .447-1 1v16c0 .553.447 1 1 1zm1-2v-9h1v2c0 .553.447 1 1 1h4c.553 0 1-.447 1-1v-2h1v9zm5-9v1h-2v-1zm3-5v3h-8v-3z"/></g></svg>