<?xml version="1.0" encoding="iso-8859-1"?>
<!-- Generator: Adobe Illustrator 19.0.0, SVG Export Plug-In . SVG Version: 6.00 Build 0)  -->
<svg version="1.1" id="Capa_1" xmlns="http://www.w3.org/2000/svg" xmlns:xlink="http://www.w3.org/1999/xlink" x="0px" y="0px"
	 viewBox="0 0 512 512" style="enable-background:new 0 0 512 512;" xml:space="preserve">
<g>
	<g>
		<path d="M48,391.595c-4.418,0-8,3.582-8,8v16c0,4.418,3.582,8,8,8s8-3.582,8-8v-16C56,395.177,52.418,391.595,48,391.595z"/>
	</g>
</g>
<g>
	<g>
		<path d="M88,391.595c-4.418,0-8,3.582-8,8v16c0,4.418,3.582,8,8,8s8-3.582,8-8v-16C96,395.177,92.418,391.595,88,391.595z"/>
	</g>
</g>
<g>
	<g>
		<path d="M128,391.595c-4.418,0-8,3.582-8,8v16c0,4.418,3.582,8,8,8s8-3.582,8-8v-16C136,395.177,132.418,391.595,128,391.595z"/>
	</g>
</g>
<g>
	<g>
		<path d="M168,391.595c-4.418,0-8,3.582-8,8v16c0,4.418,3.582,8,8,8s8-3.582,8-8v-16C176,395.177,172.418,391.595,168,391.595z"/>
	</g>
</g>
<g>
	<g>
		<path d="M208,391.595c-4.418,0-8,3.582-8,8v16c0,4.418,3.582,8,8,8s8-3.582,8-8v-16C216,395.177,212.418,391.595,208,391.595z"/>
	</g>
</g>
<g>
	<g>
		<path d="M256,391.595c-4.418,0-8,3.582-8,8v16c0,4.418,3.582,8,8,8s8-3.582,8-8v-16C264,395.177,260.418,391.595,256,391.595z"/>
	</g>
</g>
<g>
	<g>
		<path d="M296,391.595c-4.418,0-8,3.582-8,8v16c0,4.418,3.582,8,8,8s8-3.582,8-8v-16C304,395.177,300.418,391.595,296,391.595z"/>
	</g>
</g>
<g>
	<g>
		<path d="M336,391.595c-4.418,0-8,3.582-8,8v16c0,4.418,3.582,8,8,8s8-3.582,8-8v-16C344,395.177,340.418,391.595,336,391.595z"/>
	</g>
</g>
<g>
	<g>
		<path d="M376,391.595c-4.418,0-8,3.582-8,8v16c0,4.418,3.582,8,8,8s8-3.582,8-8v-16C384,395.177,380.418,391.595,376,391.595z"/>
	</g>
</g>
<g>
	<g>
		<path d="M416,391.595c-4.418,0-8,3.582-8,8v16c0,4.418,3.582,8,8,8s8-3.582,8-8v-16C424,395.177,420.418,391.595,416,391.595z"/>
	</g>
</g>
<g>
	<g>
		<path d="M424,359.595h-32c-4.418,0-8,3.582-8,8s3.582,8,8,8h32c4.418,0,8-3.582,8-8S428.418,359.595,424,359.595z"/>
	</g>
</g>
<g>
	<g>
		<path d="M490.16,215.595c-0.027,0-0.053,0-0.08,0H464v-8c0-39.765-32.235-72-72-72h-40v-25.36c9.594-3.392,16.005-12.465,16-22.64
			v-8.48c0.014-17.543-11.404-33.047-28.16-38.24c-69.889-21.959-144.831-21.959-214.72,0h-0.96
			C107.404,46.067,95.986,61.572,96,79.115v8.48c-0.005,10.175,6.407,19.248,16,22.64v25.36H72c-39.765,0-72,32.235-72,72v224
			c0,13.255,10.745,24,24,24h19.04l11.6,23.12c2.702,5.437,8.248,8.877,14.32,8.88h22.08c6.072-0.003,11.618-3.443,14.32-8.88
			l11.6-23.12h230.08l11.6,23.12c2.702,5.437,8.248,8.877,14.32,8.88h22.08c6.072-0.003,11.618-3.443,14.32-8.88l11.6-23.12H440
			c13.255,0,24-10.745,24-24v-24c13.255,0,24-10.745,24-24v-32c0-13.255-10.745-24-24-24v-58.24l33.04-11.04
			c8.914-2.985,14.932-11.32,14.96-20.72C512.044,225.489,502.266,215.639,490.16,215.595z M112,79.115
			c0.017-10.498,6.855-19.766,16.88-22.88h0.96c66.842-21.006,138.518-21.006,205.36,0c9.993,3.143,16.794,12.404,16.8,22.88v8.48
			c0,4.418-3.582,8-8,8s-8,3.582-8,8v64H128v-64c0-4.418-3.582-8-8-8s-8-3.582-8-8V79.115z M91.04,471.595H68.96l-8-16h38.08
			L91.04,471.595z M395.04,471.595h-22.08l-8-16h38.08L395.04,471.595z M448,343.595v88c0,4.418-3.582,8-8,8H24
			c-4.418,0-8-3.582-8-8v-56h344c4.418,0,8-3.582,8-8s-3.582-8-8-8H16v-152c0-30.928,25.072-56,56-56h40v16H72c-4.418,0-8,3.582-8,8
			s3.582,8,8,8h320c4.418,0,8-3.582,8-8s-3.582-8-8-8h-40v-16h40c30.928,0,56,25.072,56,56V343.595z M472,351.595v32
			c0,4.418-3.582,8-8,8v-48C468.418,343.595,472,347.177,472,351.595z M496,237.595c-0.012,2.551-1.656,4.807-4.08,5.6l-27.92,9.28
			v-20.88h26.08c3.27,0,5.92,2.65,5.92,5.92V237.595z"/>
	</g>
</g>
<g>
	<g>
		<path d="M72,215.595c-13.255,0-24,10.745-24,24s10.745,24,24,24s24-10.745,24-24S85.255,215.595,72,215.595z M72,249.915
			c-5.7,0-10.32-4.62-10.32-10.32s4.62-10.32,10.32-10.32s10.32,4.62,10.32,10.32S77.7,249.915,72,249.915z"/>
	</g>
</g>
<g>
	<g>
		<path d="M184,119.595h-16c-4.418,0-8,3.582-8,8s3.582,8,8,8h16c4.418,0,8-3.582,8-8S188.418,119.595,184,119.595z"/>
	</g>
</g>
<g>
	<g>
		<path d="M248,71.595h-16c-4.418,0-8,3.582-8,8s3.582,8,8,8h16c4.418,0,8-3.582,8-8S252.418,71.595,248,71.595z"/>
	</g>
</g>
<g>
	<g>
		<path d="M152,231.595h-32c-4.418,0-8,3.582-8,8s3.582,8,8,8h32c4.418,0,8-3.582,8-8S156.418,231.595,152,231.595z"/>
	</g>
</g>
<g>
	<g>
		<path d="M280,135.595h-16c-4.418,0-8,3.582-8,8s3.582,8,8,8h16c4.418,0,8-3.582,8-8S284.418,135.595,280,135.595z"/>
	</g>
</g>
<g>
</g>
<g>
</g>
<g>
</g>
<g>
</g>
<g>
</g>
<g>
</g>
<g>
</g>
<g>
</g>
<g>
</g>
<g>
</g>
<g>
</g>
<g>
</g>
<g>
</g>
<g>
</g>
<g>
</g>
</svg>
